<svg width="25" height="25" fill="none" xmlns="http://www.w3.org/2000/svg"><path d="M14.975 21c.556 0 .599-.599.992-.995.394-.397.992-.434.992-.995 0-.561-.598-1.594-.992-1.99-.393-.397-.436 0-.992 0s-1.59-.397-1.984 0c-.393.396 0 1.429 0 1.99 0 .56-.393.598 0 .995.394.396 1.428.995 1.984.995ZM7.04 21c.557 0 1.59-.599 1.984-.995.394-.397 0-.434 0-.995 0-.561.394-1.594 0-1.99-.393-.397-1.427 0-1.984 0-.556 0-.598-.397-.992 0-.393.396-.992 1.429-.992 1.99 0 .56.599.598.992.995.394.396.436.995.992.995ZM20.927 6.073c.262-.009.81.19.992 0 .182-.19 0-.731 0-.995s.182-.806 0-.996c-.182-.19-.73.009-.992 0h-.992c-.946 0-1.778 1.06-1.984 1.99l-1.984 5.972c-.206.93-.046.995-.992.995H7.04L5.055 7.068h9.92c.26-.012.813.19.992 0 .18-.19 0-.733 0-.995s.18-.806 0-.995c-.18-.19-.732.012-.992 0h-9.92c-.306 0-.716-.136-.992 0-.275.135-.803.751-.992.995-.188.243.064.693 0 .995a2.417 2.417 0 0 0 0 .995l1.984 5.971c.11.44-.354.716 0 .995.355.28 1.534 0 1.984 0h7.936c.918 0 1.268-.416 1.984-.995.716-.58.793-1.087.992-1.99l1.984-5.971h.992Z" fill="#fff"/></svg>